<svg width="40" height="32" viewBox="0 0 40 32" fill="none" xmlns="http://www.w3.org/2000/svg">
<path d="M6.25 0C4.5924 0 3.00269 0.65848 1.83058 1.83058C0.65848 3.00269 0 4.5924 0 6.25V25.75C0 27.4076 0.65848 28.9973 1.83058 30.1694C3.00269 31.3415 4.5924 32 6.25 32H33.75C35.4076 32 36.9973 31.3415 38.1694 30.1694C39.3415 28.9973 40 27.4076 40 25.75V6.25C40 4.5924 39.3415 3.00269 38.1694 1.83058C36.9973 0.65848 35.4076 0 33.75 0H6.25ZM2.5 6.25C2.5 5.25544 2.89509 4.30161 3.59835 3.59835C4.30161 2.89509 5.25544 2.5 6.25 2.5H33.75C34.7446 2.5 35.6984 2.89509 36.4016 3.59835C37.1049 4.30161 37.5 5.25544 37.5 6.25V7.14L20.002 16.35L2.5 7.063V6.25ZM2.5 9.894L19.414 18.868C19.5938 18.9634 19.7942 19.0135 19.9978 19.0138C20.2013 19.0142 20.4019 18.9648 20.582 18.87L37.5 9.965V25.75C37.5 26.7446 37.1049 27.6984 36.4016 28.4016C35.6984 29.1049 34.7446 29.5 33.75 29.5H6.25C5.25544 29.5 4.30161 29.1049 3.59835 28.4016C2.89509 27.6984 2.5 26.7446 2.5 25.75V9.894Z" fill="#BF35FC"/>
</svg>
