<svg width="60" height="60" viewBox="0 0 60 60" fill="none" xmlns="http://www.w3.org/2000/svg">
<path d="M54.375 0H5.625C2.53125 0 0 2.53125 0 5.625V54.375C0 57.4688 2.53125 60 5.625 60H54.375C57.4688 60 60 57.4688 60 54.375V5.625C60 2.53125 57.4688 0 54.375 0ZM22.5 48.75H15V22.5H22.5V48.75ZM18.75 18.75C17.7554 18.75 16.8016 18.3549 16.0984 17.6516C15.3951 16.9484 15 15.9946 15 15C15 14.0054 15.3951 13.0516 16.0984 12.3483C16.8016 11.6451 17.7554 11.25 18.75 11.25C19.7446 11.25 20.6984 11.6451 21.4016 12.3483C22.1049 13.0516 22.5 14.0054 22.5 15C22.5 15.9946 22.1049 16.9484 21.4016 17.6516C20.6984 18.3549 19.7446 18.75 18.75 18.75ZM48.75 48.75H41.25V33.75C41.25 32.7554 40.8549 31.8016 40.1516 31.0984C39.4484 30.3951 38.4946 30 37.5 30C36.5054 30 35.5516 30.3951 34.8484 31.0984C34.1451 31.8016 33.75 32.7554 33.75 33.75V48.75H26.25V22.5H33.75V27.1538C35.295 25.0312 37.665 22.5 40.3125 22.5C44.9775 22.5 48.75 26.6962 48.75 31.875V48.75Z" fill="url(#paint0_linear_1047_258)"/>
<defs>
<linearGradient id="paint0_linear_1047_258" x1="38.5" y1="30" x2="70" y2="-11.5" gradientUnits="userSpaceOnUse">
<stop stop-color="#0A66C2"/>
<stop offset="1" stop-color="#013972"/>
</linearGradient>
</defs>
</svg>
