<svg width="60" height="60" viewBox="0 0 60 60" fill="none" xmlns="http://www.w3.org/2000/svg">
<rect width="60" height="60" rx="5" fill="url(#paint0_linear_104_252)"/>
<path d="M26 35.8571L35.0825 30.5L26 25.1429V35.8571ZM46.23 21.875C46.4575 22.7143 46.615 23.8393 46.72 25.2679C46.8425 26.6964 46.895 27.9286 46.895 29L47 30.5C47 34.4107 46.72 37.2857 46.23 39.125C45.7925 40.7321 44.7775 41.7679 43.2025 42.2143C42.38 42.4464 40.875 42.6071 38.565 42.7143C36.29 42.8393 34.2075 42.8929 32.2825 42.8929L29.5 43C22.1675 43 17.6 42.7143 15.7975 42.2143C14.2225 41.7679 13.2075 40.7321 12.77 39.125C12.5425 38.2857 12.385 37.1607 12.28 35.7321C12.1575 34.3036 12.105 33.0714 12.105 32L12 30.5C12 26.5893 12.28 23.7143 12.77 21.875C13.2075 20.2679 14.2225 19.2321 15.7975 18.7857C16.62 18.5536 18.125 18.3929 20.435 18.2857C22.71 18.1607 24.7925 18.1071 26.7175 18.1071L29.5 18C36.8325 18 41.4 18.2857 43.2025 18.7857C44.7775 19.2321 45.7925 20.2679 46.23 21.875Z" fill="white"/>
<defs>
<linearGradient id="paint0_linear_104_252" x1="53.5" y1="2.5" x2="13" y2="67.5" gradientUnits="userSpaceOnUse">
<stop stop-color="#B90832"/>
<stop offset="1" stop-color="#FF0000"/>
</linearGradient>
</defs>
</svg>
