<svg width="120" height="24" viewBox="0 0 120 24" fill="none" xmlns="http://www.w3.org/2000/svg">
<path d="M12.0001 17.27L16.1501 19.78C16.9101 20.24 17.8401 19.56 17.6401 18.7L16.5401 13.98L20.2101 10.8C20.8801 10.22 20.5201 9.12001 19.6401 9.05001L14.8101 8.64001L12.9201 4.18001C12.5801 3.37001 11.4201 3.37001 11.0801 4.18001L9.19007 8.63001L4.36007 9.04001C3.48007 9.11001 3.12007 10.21 3.79007 10.79L7.46007 13.97L6.36007 18.69C6.16007 19.55 7.09007 20.23 7.85007 19.77L12.0001 17.27Z" fill="#ECDB3F"/>
<path d="M36.0001 17.27L40.1501 19.78C40.9101 20.24 41.8401 19.56 41.6401 18.7L40.5401 13.98L44.2101 10.8C44.8801 10.22 44.5201 9.12001 43.6401 9.05001L38.8101 8.64001L36.9201 4.18001C36.5801 3.37001 35.4201 3.37001 35.0801 4.18001L33.1901 8.63001L28.3601 9.04001C27.4801 9.11001 27.1201 10.21 27.7901 10.79L31.4601 13.97L30.3601 18.69C30.1601 19.55 31.0901 20.23 31.8501 19.77L36.0001 17.27Z" fill="#ECDB3F"/>
<path d="M60.0001 17.27L64.1501 19.78C64.9101 20.24 65.8401 19.56 65.6401 18.7L64.5401 13.98L68.2101 10.8C68.8801 10.22 68.5201 9.12001 67.6401 9.05001L62.8101 8.64001L60.9201 4.18001C60.5801 3.37001 59.4201 3.37001 59.0801 4.18001L57.1901 8.63001L52.3601 9.04001C51.4801 9.11001 51.1201 10.21 51.7901 10.79L55.4601 13.97L54.3601 18.69C54.1601 19.55 55.0901 20.23 55.8501 19.77L60.0001 17.27Z" fill="#ECDB3F"/>
<path d="M83.9998 17.2698L88.1498 19.7798C88.9098 20.2398 89.8398 19.5598 89.6398 18.6998L88.5398 13.9798L92.2098 10.7998C92.8798 10.2198 92.5198 9.11977 91.6398 9.04977L86.8098 8.63977L84.9198 4.17977C84.5798 3.36977 83.4198 3.36977 83.0798 4.17977L81.1898 8.62977L76.3598 9.03977C75.4798 9.10977 75.1198 10.2098 75.7898 10.7898L79.4598 13.9698L78.3598 18.6898C78.1598 19.5498 79.0898 20.2298 79.8498 19.7698L83.9998 17.2698Z" fill="#ECDB3F"/>
<path d="M108 17.27L112.15 19.78C112.91 20.24 113.84 19.56 113.64 18.7L112.54 13.98L116.21 10.8C116.88 10.22 116.52 9.12001 115.64 9.05001L110.81 8.64001L108.92 4.18001C108.58 3.37001 107.42 3.37001 107.08 4.18001L105.19 8.63001L100.36 9.04001C99.4801 9.11001 99.1201 10.21 99.7901 10.79L103.46 13.97L102.36 18.69C102.16 19.55 103.09 20.23 103.85 19.77L108 17.27Z" fill="#ECDB3F"/>
</svg>
